<svg width="1168" height="752" viewBox="0 0 1168 752" fill="none" xmlns="http://www.w3.org/2000/svg">
<g clip-path="url(#clip0)">
<path d="M869.3 676.907C866.714 676.903 864.226 675.902 862.34 674.107C860.454 672.312 859.31 669.856 859.141 667.238L857.628 643.799C857.452 641.061 858.354 638.364 860.137 636.302C861.92 634.239 864.437 632.979 867.136 632.8L1048.13 620.774C1053.89 620.391 1059.57 622.346 1063.91 626.209C1068.25 630.072 1070.9 635.527 1071.28 641.373C1071.65 647.219 1069.73 652.978 1065.92 657.382C1062.11 661.787 1056.74 664.476 1050.97 664.859L869.981 676.884C869.754 676.899 869.526 676.907 869.3 676.907Z" fill="#6C63FF"/>
<path d="M904.756 679.647C902.108 679.643 899.565 678.621 897.658 676.797C895.752 674.972 894.63 672.486 894.528 669.859L893.233 635.45C893.183 634.115 893.398 632.784 893.866 631.533C894.333 630.281 895.045 629.133 895.96 628.154C896.874 627.175 897.974 626.385 899.196 625.829C900.419 625.272 901.739 624.96 903.083 624.91L1052.56 619.363C1055.27 619.262 1057.91 620.236 1059.9 622.071C1061.89 623.905 1063.07 626.449 1063.17 629.144L1064.47 663.553C1064.52 664.887 1064.3 666.218 1063.83 667.47C1063.37 668.722 1062.65 669.87 1061.74 670.849C1060.82 671.827 1059.72 672.617 1058.5 673.174C1057.28 673.731 1055.96 674.043 1054.62 674.092L905.143 679.64C905.014 679.645 904.884 679.647 904.756 679.647Z" fill="#2F2E41"/>
<path d="M1043.92 583.729C1088.56 583.729 1124.75 547.534 1124.75 502.884C1124.75 458.235 1088.56 422.039 1043.92 422.039C999.283 422.039 963.095 458.235 963.095 502.884C963.095 547.534 999.283 583.729 1043.92 583.729Z" fill="#6C63FF"/>
<path d="M1009.08 538.507C1006.48 538.564 1003.9 538.034 1001.51 536.951C999.896 536.144 998.47 534.974 997.331 533.524C996.192 532.074 995.367 530.379 994.914 528.557C994.569 527.268 994.511 525.911 994.745 524.594C994.98 523.277 995.499 522.035 996.264 520.965C998.27 518.251 1001.73 516.96 1005.81 517.29L995.722 487.51L998.558 486.441L1010.41 521.451L1007.74 520.811C1004.64 520.072 1000.62 520.234 998.639 522.918C998.159 523.611 997.837 524.412 997.698 525.257C997.559 526.103 997.607 526.971 997.837 527.794C998.181 529.149 998.798 530.409 999.646 531.489C1000.49 532.57 1001.55 533.445 1002.75 534.055C1006.94 536.051 1011.84 535.341 1017.36 534.287L1017.89 537.412C1014.99 538.054 1012.04 538.421 1009.08 538.507Z" fill="#2F2E41"/>
<path d="M980.653 493.771L964.093 497.251L964.739 500.326L981.299 496.846L980.653 493.771Z" fill="#2F2E41"/>
<path d="M1032.92 482.786L1016.36 486.266L1017.01 489.341L1033.57 485.861L1032.92 482.786Z" fill="#2F2E41"/>
<path d="M800.406 683.664L890.58 733.732C891.103 734.083 891.695 734.314 892.316 734.409C892.937 734.504 893.57 734.46 894.172 734.28C894.774 734.101 895.33 733.79 895.8 733.37C896.27 732.95 896.644 732.431 896.894 731.849L918.984 685.176C919.403 683.845 919.335 682.407 918.793 681.123C918.251 679.839 917.27 678.794 916.03 678.179L841.163 639.172C840.241 638.611 839.146 638.414 838.089 638.618C837.032 638.822 836.087 639.414 835.434 640.279L798.038 675.892C797.317 677.19 797.136 678.725 797.535 680.158C797.934 681.592 798.879 682.806 800.164 683.535C800.243 683.58 800.324 683.623 800.406 683.664Z" fill="#3F3D56"/>
<path d="M805.547 676.025L891.029 724.866L913.776 683.883L840.445 644.021L805.547 676.025Z" fill="white"/>
<path d="M878.822 662.649C879.273 662.273 879.281 661.539 878.84 661.011C878.399 660.482 877.676 660.358 877.225 660.734C876.774 661.11 876.767 661.844 877.208 662.372C877.649 662.901 878.372 663.025 878.822 662.649Z" fill="#F2F2F2"/>
<path d="M847.121 703.882C847.421 703.632 847.426 703.143 847.132 702.79C846.838 702.438 846.357 702.355 846.056 702.606C845.756 702.857 845.751 703.346 846.045 703.698C846.339 704.051 846.82 704.133 847.121 703.882Z" fill="#F2F2F2"/>
<path d="M1111.41 846.819H976.435C972.898 846.815 969.507 845.404 967.006 842.897C964.505 840.389 963.099 836.989 963.095 833.443L991.352 616.187C991.375 612.657 992.79 609.279 995.288 606.792C997.787 604.305 1001.17 602.91 1004.69 602.913H1052.59C1071.72 602.935 1090.06 610.564 1103.59 624.129C1117.12 637.693 1124.73 656.084 1124.75 675.266V833.443C1124.75 836.989 1123.34 840.389 1120.84 842.897C1118.34 845.404 1114.95 846.815 1111.41 846.819Z" fill="#2F2E41"/>
<path d="M1019.26 602.913L982.274 683.758L988.636 615.848C988.619 614.166 988.934 612.497 989.564 610.937C990.195 609.376 991.127 607.955 992.308 606.753C993.49 605.552 994.897 604.595 996.45 603.936C998.002 603.277 999.67 602.929 1001.36 602.913H1019.26Z" fill="#CCCCCC"/>
<path d="M900.505 756.382C898.544 756.383 896.625 755.81 894.978 754.731C893.332 753.653 892.028 752.116 891.223 750.304L881.786 728.986C881.24 727.753 880.939 726.424 880.9 725.073C880.862 723.722 881.086 722.377 881.56 721.114C882.035 719.851 882.75 718.696 883.665 717.713C884.581 716.73 885.678 715.94 886.895 715.387L1051.72 640.464C1056.97 638.079 1062.94 637.904 1068.31 639.977C1073.69 642.05 1078.03 646.201 1080.38 651.518C1082.74 656.834 1082.91 662.881 1080.86 668.327C1078.82 673.773 1074.72 678.172 1069.47 680.557L904.646 755.48C903.344 756.074 901.932 756.381 900.505 756.382Z" fill="#6C63FF"/>
<path d="M949.572 745.42C947.617 745.421 945.704 744.851 944.063 743.779C942.421 742.707 941.121 741.178 940.32 739.376L924.248 703.17C923.153 700.694 923.074 697.88 924.029 695.345C924.983 692.81 926.894 690.761 929.342 689.648L1064.27 628.474C1065.49 627.924 1066.8 627.621 1068.12 627.582C1069.45 627.543 1070.78 627.769 1072.02 628.247C1073.26 628.725 1074.4 629.445 1075.37 630.368C1076.33 631.29 1077.11 632.395 1077.65 633.621L1093.73 669.827C1094.27 671.052 1094.57 672.375 1094.61 673.718C1094.65 675.061 1094.42 676.398 1093.95 677.654C1093.48 678.91 1092.76 680.059 1091.85 681.036C1090.94 682.013 1089.85 682.799 1088.63 683.349L953.7 744.524C952.402 745.114 950.995 745.419 949.572 745.42Z" fill="#2F2E41"/>
<path d="M1026.85 453.325C1013.75 448.516 1002.98 461.188 991.109 464.089C979.753 466.864 967.518 460.335 961.453 450.818C954.376 439.715 956.129 425.3 962.567 414.339C969.617 402.334 982.173 394.968 995.481 391.751C1010.73 388.063 1026.62 389.877 1041.68 393.622C1056.12 396.992 1070.11 402.016 1083.39 408.593C1095.4 414.786 1106.78 423.259 1113.79 434.994C1120.17 445.658 1123.32 458.932 1120.17 471.151C1118.43 477.459 1115.09 483.214 1110.48 487.861C1105.72 492.875 1100.28 497.221 1095.85 502.54C1089.15 510.582 1084.64 523.761 1091.25 533.274C1092.68 535.356 1094.61 537.055 1096.85 538.222C1099.55 539.622 1101.95 535.553 1099.24 534.148C1094.49 531.682 1092.77 526.676 1092.89 521.572C1093.15 515.78 1095.37 510.245 1099.19 505.876C1103.84 500.316 1109.57 495.815 1114.47 490.501C1119.21 485.548 1122.68 479.527 1124.59 472.949C1128.07 460.227 1125.35 446.371 1119.18 434.91C1112.51 422.507 1101.33 413.142 1089.16 406.335C1075.92 398.928 1061.2 393.964 1046.59 390.022C1030.91 385.792 1014.45 383.41 998.31 386.337C984.324 388.875 970.654 395.605 961.858 406.993C953.648 417.622 949.726 432.11 953.696 445.19C955.581 451.112 959.014 456.427 963.644 460.587C968.274 464.747 973.932 467.602 980.036 468.859C986.243 469.997 992.652 469.164 998.358 466.477C1004.51 463.731 1010.09 459.462 1016.63 457.637C1019.56 456.743 1022.71 456.826 1025.59 457.874C1028.45 458.925 1029.69 454.368 1026.85 453.325V453.325Z" fill="#2F2E41"/>
</g>
<defs>
<clipPath id="clip0">
<rect width="1265" height="860" fill="white"/>
</clipPath>
</defs>
</svg>
