<svg width="30" height="30" viewBox="0 0 30 30" fill="none" xmlns="http://www.w3.org/2000/svg">
<path d="M29.0625 5.15625H27.6562V1.40625C27.6562 0.889219 27.2358 0.46875 26.7188 0.46875H24.8438C24.3267 0.46875 23.9062 0.889219 23.9062 1.40625V5.15625H6.09375V1.40625C6.09375 0.889219 5.67328 0.46875 5.15625 0.46875H3.28125C2.76422 0.46875 2.34375 0.889219 2.34375 1.40625V5.15625H0.9375C0.67875 5.15625 0.46875 5.36578 0.46875 5.625V9.375C0.46875 9.63422 0.67875 9.84375 0.9375 9.84375H2.34375V13.5938H0.9375C0.67875 13.5938 0.46875 13.8033 0.46875 14.0625V17.8125C0.46875 18.0717 0.67875 18.2812 0.9375 18.2812H2.34375V22.9688H1.40625V23.9062H7.03125V22.9688H6.09375V18.2812H11.4281L9.92813 25.7812H8.4375C8.17875 25.7812 7.96875 25.9908 7.96875 26.25V29.0625C7.96875 29.3217 8.17875 29.5312 8.4375 29.5312H21.5625C21.8213 29.5312 22.0312 29.3217 22.0312 29.0625V26.25C22.0312 25.9908 21.8213 25.7812 21.5625 25.7812H20.0719L18.5719 18.2812H23.9062V22.9688H22.9688V23.9062H28.5938V22.9688H27.6562V18.2812H29.0625C29.3213 18.2812 29.5312 18.0717 29.5312 17.8125V14.0625C29.5312 13.8033 29.3213 13.5938 29.0625 13.5938H27.6562V9.84375H29.0625C29.3213 9.84375 29.5312 9.63422 29.5312 9.375V5.625C29.5312 5.36578 29.3213 5.15625 29.0625 5.15625ZM17.6344 13.5938L17.3348 12.0956C17.2908 11.8767 17.0986 11.7188 16.875 11.7188H13.125C12.9014 11.7188 12.7092 11.8767 12.6656 12.0956L12.3656 13.5938H6.09375V9.84375H23.9062V13.5938H17.6344ZM18.5531 22.9688H11.4469L11.8219 21.0938H18.1781L18.5531 22.9688ZM12.0094 20.1562L12.3844 18.2812H17.6156L17.9906 20.1562H12.0094ZM12.5719 17.3438L12.9469 15.4688H17.0531L17.4281 17.3438H12.5719ZM13.1344 14.5312L13.5094 12.6562H16.4906L16.8656 14.5312H13.1344ZM14.7253 8.90625L17.5378 6.09375H20.8997L18.0872 8.90625H14.7253ZM13.3997 8.90625H10.0378L12.8503 6.09375H16.2122L13.3997 8.90625ZM8.71219 8.90625H4.88156L7.69406 6.09375H11.5247L8.71219 8.90625ZM19.4128 8.90625L22.2253 6.09375H25.5872L22.7747 8.90625H19.4128ZM24.8438 1.40625H26.7188V5.15625H24.8438V1.40625ZM3.28125 1.40625H5.15625V5.15625H3.28125V1.40625ZM1.40625 6.09375H6.36844L3.55594 8.90625H1.40625V6.09375ZM3.28125 9.84375H5.15625V13.5938H3.28125V9.84375ZM1.40625 14.5312H5.89969L3.08719 17.3438H2.8125H1.40625V14.5312ZM5.15625 22.9688H3.28125V18.2812H5.15625V22.9688ZM5.625 17.3438H4.41281L7.22531 14.5312H12.1781L11.6156 17.3438H5.625ZM21.0938 28.5938H8.90625V26.7188H21.0938V28.5938ZM10.8844 25.7812L11.2594 23.9062H18.7406L19.1156 25.7812H10.8844ZM17.8219 14.5312H25.5872L22.7747 17.3438H18.3844L17.8219 14.5312ZM26.7188 22.9688H24.8438V18.2812H26.7188V22.9688ZM28.5938 17.3438H27.1875H24.375H24.1003L26.9128 14.5312H28.5938V17.3438ZM26.7188 13.5938H24.8438V9.84375H26.7188V13.5938ZM28.5938 8.90625H24.1003L26.9128 6.09375H28.5938V8.90625Z" fill="#183787"/>
</svg>
