<svg width="30" height="30" viewBox="0 0 30 30" fill="none" xmlns="http://www.w3.org/2000/svg">
<path d="M5.15625 22.0312V24.8438H4.6875C4.42875 24.8438 4.21875 25.0533 4.21875 25.3125V27.1875C4.21875 27.4467 4.42875 27.6562 4.6875 27.6562H6.09375V28.125C6.09375 28.9003 6.72469 29.5312 7.5 29.5312H9.375C10.1503 29.5312 10.7812 28.9003 10.7812 28.125V27.6562H19.2188V28.125C19.2188 28.9003 19.8497 29.5312 20.625 29.5312H22.5C23.2753 29.5312 23.9062 28.9003 23.9062 28.125V27.6562H25.3125C25.5713 27.6562 25.7812 27.4467 25.7812 27.1875V25.3125C25.7812 25.0533 25.5713 24.8438 25.3125 24.8438H24.8438V22.0312C24.8438 20.8092 24.0595 19.77 22.9688 19.3828V18.75H23.4375C24.2128 18.75 24.8438 18.1191 24.8438 17.3438V16.4062C24.8438 15.6309 24.2128 15 23.4375 15H22.9688V14.5312C22.9688 12.9802 21.7073 11.7188 20.1562 11.7188H9.84375C8.29266 11.7188 7.03125 12.9802 7.03125 14.5312V15H6.5625C5.78719 15 5.15625 15.6309 5.15625 16.4062V17.3438C5.15625 18.1191 5.78719 18.75 6.5625 18.75H7.03125V19.3828C5.94047 19.77 5.15625 20.8092 5.15625 22.0312ZM5.15625 25.7812H11.7188V26.7188H5.15625V25.7812ZM17.3438 25.7812V26.7188H12.6562V25.7812H17.3438ZM18.2812 22.9688H11.7188V22.0312H18.2812V22.9688ZM11.7188 23.9062H18.2812V24.8438H11.7188V23.9062ZM9.84375 28.125C9.84375 28.3838 9.63328 28.5938 9.375 28.5938H7.5C7.24172 28.5938 7.03125 28.3838 7.03125 28.125V27.6562H9.84375V28.125ZM22.9688 28.125C22.9688 28.3838 22.7583 28.5938 22.5 28.5938H20.625C20.3667 28.5938 20.1562 28.3838 20.1562 28.125V27.6562H22.9688V28.125ZM24.8438 26.7188H18.2812V25.7812H24.8438V26.7188ZM23.9062 22.0312V24.8438H19.2188V21.5625C19.2188 21.3033 19.0087 21.0938 18.75 21.0938H11.25C10.9913 21.0938 10.7812 21.3033 10.7812 21.5625V24.8438H6.09375V22.0312C6.09375 20.9972 6.93469 20.1562 7.96875 20.1562H22.0312C23.0653 20.1562 23.9062 20.9972 23.9062 22.0312ZM23.4375 15.9375C23.6958 15.9375 23.9062 16.1475 23.9062 16.4062V17.3438C23.9062 17.6025 23.6958 17.8125 23.4375 17.8125H22.9688V15.9375H23.4375ZM6.5625 17.8125C6.30422 17.8125 6.09375 17.6025 6.09375 17.3438V16.4062C6.09375 16.1475 6.30422 15.9375 6.5625 15.9375H7.03125V17.8125H6.5625ZM7.96875 14.5312C7.96875 13.4972 8.80969 12.6562 9.84375 12.6562H20.1562C21.1903 12.6562 22.0312 13.4972 22.0312 14.5312V19.2188H7.96875V14.5312Z" fill="#183787"/>
<path d="M19.6875 13.5938H10.3125C9.53719 13.5938 8.90625 14.2247 8.90625 15V17.8125C8.90625 18.0717 9.11625 18.2812 9.375 18.2812H20.625C20.8837 18.2812 21.0937 18.0717 21.0937 17.8125V15C21.0937 14.2247 20.4628 13.5938 19.6875 13.5938ZM20.1562 17.3438H9.84375V15C9.84375 14.7413 10.0542 14.5312 10.3125 14.5312H19.6875C19.9458 14.5312 20.1562 14.7413 20.1562 15V17.3438Z" fill="#183787"/>
<path d="M20.1562 22.5C20.1562 23.2753 20.7872 23.9062 21.5625 23.9062C22.3378 23.9062 22.9688 23.2753 22.9688 22.5C22.9688 21.7247 22.3378 21.0938 21.5625 21.0938C20.7872 21.0938 20.1562 21.7247 20.1562 22.5ZM22.0312 22.5C22.0312 22.7587 21.8208 22.9688 21.5625 22.9688C21.3042 22.9688 21.0938 22.7587 21.0938 22.5C21.0938 22.2413 21.3042 22.0312 21.5625 22.0312C21.8208 22.0312 22.0312 22.2413 22.0312 22.5Z" fill="#183787"/>
<path d="M8.4375 21.0938C7.66219 21.0938 7.03125 21.7247 7.03125 22.5C7.03125 23.2753 7.66219 23.9062 8.4375 23.9062C9.21281 23.9062 9.84375 23.2753 9.84375 22.5C9.84375 21.7247 9.21281 21.0938 8.4375 21.0938ZM8.4375 22.9688C8.17922 22.9688 7.96875 22.7587 7.96875 22.5C7.96875 22.2413 8.17922 22.0312 8.4375 22.0312C8.69578 22.0312 8.90625 22.2413 8.90625 22.5C8.90625 22.7587 8.69578 22.9688 8.4375 22.9688Z" fill="#183787"/>
<path d="M29.3934 4.35562L25.6439 0.606094C25.5562 0.517969 25.4367 0.46875 25.3125 0.46875H4.6875C4.56328 0.46875 4.44375 0.517969 4.35609 0.606094L0.606563 4.35562C0.52125 4.44047 0.46875 4.55766 0.46875 4.6875V29.0625C0.46875 29.3217 0.67875 29.5312 0.9375 29.5312H2.8125C3.07125 29.5312 3.28125 29.3217 3.28125 29.0625V10.7812H26.7188V29.0625C26.7188 29.3217 26.9287 29.5312 27.1875 29.5312H29.0625C29.3213 29.5312 29.5312 29.3217 29.5312 29.0625V4.6875C29.5312 4.55766 29.4788 4.44047 29.3934 4.35562ZM4.88156 1.40625H25.1184L27.9309 4.21875H2.06906L4.88156 1.40625ZM26.7188 7.96875H3.28125V7.03125H26.7188V7.96875ZM3.28125 9.84375V8.90625H26.7188V9.84375H3.28125ZM28.5938 28.5938H27.6562V6.5625C27.6562 6.30328 27.4463 6.09375 27.1875 6.09375H2.8125C2.55375 6.09375 2.34375 6.30328 2.34375 6.5625V28.5938H1.40625V5.15625H28.5938V28.5938Z" fill="#183787"/>
</svg>
