<svg width="30" height="30" viewBox="0 0 30 30" fill="none" xmlns="http://www.w3.org/2000/svg">
<path d="M9.84375 20.1562C9.84375 25.3256 14.0494 29.5312 19.2188 29.5312C24.3881 29.5312 28.5938 25.3256 28.5938 20.1562C28.5938 14.9869 24.3881 10.7812 19.2188 10.7812C14.0494 10.7812 9.84375 14.9869 9.84375 20.1562ZM27.6323 19.6875H25.7812V20.625H27.6323C27.5231 22.5975 26.737 24.3881 25.4977 25.7723L24.2377 24.5123L23.5748 25.1752L24.8348 26.4352C23.4506 27.6745 21.66 28.4606 19.6875 28.5698V26.7188H18.75V28.5698C16.7775 28.4606 14.9869 27.6745 13.6027 26.4352L14.8627 25.1752L14.1998 24.5123L12.9398 25.7723C11.7005 24.3881 10.9144 22.5975 10.8052 20.625H12.6562V19.6875H10.8052C10.9144 17.715 11.7005 15.9244 12.9398 14.5402L14.1998 15.8002L14.8627 15.1373L13.6027 13.8773C14.9869 12.638 16.7775 11.8519 18.75 11.7427V13.5938H19.6875V11.7427C21.66 11.8519 23.4506 12.638 24.8348 13.8773L23.5748 15.1373L24.2377 15.8002L25.4977 14.5402C26.737 15.9244 27.5231 17.715 27.6323 19.6875Z" fill="#183787"/>
<path d="M19.2187 14.5312C16.117 14.5312 13.5938 17.0545 13.5938 20.1562C13.5938 23.258 16.117 25.7812 19.2187 25.7812C22.3205 25.7812 24.8437 23.258 24.8437 20.1562C24.8437 17.0545 22.3205 14.5312 19.2187 14.5312ZM23.9062 20.1562C23.9062 20.5852 23.8434 20.9986 23.7352 21.3937L21.57 20.1562L23.7352 18.9188C23.8434 19.3139 23.9062 19.7273 23.9062 20.1562ZM14.5312 20.1562C14.5312 19.7273 14.5941 19.3139 14.7023 18.9188L16.8675 20.1562L14.7023 21.3937C14.5941 20.9986 14.5312 20.5852 14.5312 20.1562ZM20.1562 20.1562C20.1562 20.6733 19.7358 21.0938 19.2187 21.0938C18.7017 21.0938 18.2812 20.6733 18.2812 20.1562C18.2812 19.6392 18.7017 19.2188 19.2187 19.2188C19.7358 19.2188 20.1562 19.6392 20.1562 20.1562ZM20.1652 18.547C20.093 18.5044 20.0212 18.4603 19.943 18.4275L21.3403 15.982C21.6408 16.1353 21.9244 16.3172 22.1831 16.5291L20.1652 18.547ZM18.2723 18.547L16.2544 16.5291C16.5131 16.3172 16.7967 16.1353 17.0972 15.982L18.4945 18.4275C18.4163 18.4603 18.3445 18.5039 18.2723 18.547ZM17.6095 19.2098C17.5669 19.282 17.5228 19.3538 17.49 19.432L15.0445 18.0347C15.1978 17.7342 15.3797 17.4506 15.5916 17.1919L17.6095 19.2098ZM17.4895 20.8805C17.5223 20.9587 17.5664 21.0305 17.6091 21.1027L15.5911 23.1206C15.3792 22.8619 15.1973 22.5783 15.0441 22.2778L17.4895 20.8805ZM18.2723 21.7655C18.3445 21.8081 18.4163 21.8522 18.4945 21.885L17.0972 24.3305C16.7967 24.1772 16.5131 23.9953 16.2544 23.7834L18.2723 21.7655ZM20.1652 21.7655L22.1831 23.7834C21.9244 23.9953 21.6408 24.1772 21.3403 24.3305L19.943 21.885C20.0212 21.8522 20.093 21.8086 20.1652 21.7655ZM20.828 21.1027C20.8706 21.0305 20.9147 20.9587 20.9475 20.8805L23.393 22.2778C23.2397 22.5783 23.0578 22.8619 22.8459 23.1206L20.828 21.1027ZM20.948 19.432C20.9152 19.3538 20.8711 19.282 20.8284 19.2098L22.8464 17.1919C23.0583 17.4506 23.2402 17.7342 23.3934 18.0347L20.948 19.432ZM20.4562 15.6398L19.2187 17.805L17.9812 15.6398C18.3764 15.5316 18.7898 15.4688 19.2187 15.4688C19.6477 15.4688 20.0611 15.5316 20.4562 15.6398ZM17.9812 24.6727L19.2187 22.5075L20.4562 24.6727C20.0611 24.7809 19.6477 24.8438 19.2187 24.8438C18.7898 24.8438 18.3764 24.7809 17.9812 24.6727Z" fill="#183787"/>
<path d="M0.46875 25.4002C0.46875 27.3403 1.76953 29.033 3.63234 29.5163C3.7725 29.5519 3.92156 29.5219 4.03687 29.4333C4.15125 29.3447 4.21875 29.2078 4.21875 29.0625L4.21828 26.6981C4.21828 26.1928 4.62984 25.7812 5.17031 25.7812C5.41828 25.7812 5.65125 25.8769 5.82516 26.0498C5.99859 26.2223 6.09375 26.4525 6.09375 26.6972V29.0625C6.09375 29.2078 6.16125 29.3447 6.27562 29.4333C6.35859 29.4975 6.45984 29.5312 6.5625 29.5312C6.60187 29.5312 6.64125 29.5261 6.68016 29.5163C8.54297 29.033 9.84375 27.3398 9.84375 25.4002C9.84375 23.7694 8.93391 22.3088 7.5 21.5939V12.4898C8.93391 11.775 9.84375 10.3139 9.84375 8.68359C9.84375 6.74344 8.54297 5.05078 6.68016 4.5675C6.53953 4.53047 6.39094 4.56141 6.27562 4.65047C6.16125 4.73859 6.09375 4.87547 6.09375 5.02078V7.5C6.09375 8.01703 5.67328 8.4375 5.15625 8.4375C4.63922 8.4375 4.21875 8.01703 4.21875 7.5V5.02078C4.21875 4.87547 4.15125 4.73859 4.03687 4.65C3.92156 4.56094 3.7725 4.53 3.63234 4.56703C1.76953 5.05031 0.46875 6.74344 0.46875 8.68313C0.46875 10.3139 1.37859 11.7745 2.8125 12.4894V21.5934C1.37859 22.3088 0.46875 23.7694 0.46875 25.4002ZM3.45844 11.7534C2.21203 11.2439 1.40625 10.0392 1.40625 8.68313C1.40625 7.38422 2.15297 6.22734 3.28125 5.68781V7.5C3.28125 8.53406 4.12219 9.375 5.15625 9.375C6.19031 9.375 7.03125 8.53406 7.03125 7.5V5.68828C8.15953 6.22734 8.90625 7.38422 8.90625 8.68359C8.90625 10.0397 8.10047 11.2444 6.85406 11.7539C6.67781 11.8256 6.5625 11.9972 6.5625 12.1875V21.8958C6.5625 22.0861 6.67781 22.2577 6.85406 22.3298C8.10047 22.8394 8.90625 24.0441 8.90625 25.4002C8.90625 26.6991 8.15953 27.8559 7.03125 28.3955V26.6981C7.03172 26.2017 6.83812 25.7363 6.48703 25.3861C6.13594 25.0364 5.66859 24.8438 5.13516 24.8438C4.11234 24.8438 3.28078 25.6753 3.28078 26.6981L3.28125 28.395C2.1525 27.8559 1.40625 26.6991 1.40625 25.3997C1.40625 24.0436 2.21203 22.8389 3.45844 22.3294C3.63469 22.2577 3.75 22.0861 3.75 21.8958V12.1875C3.75 11.9972 3.63469 11.8256 3.45844 11.7534Z" fill="#183787"/>
<path d="M15.9375 6.09375H16.875C16.9997 6.09375 17.1188 6.04453 17.2064 5.95641L18.1439 5.01891C18.232 4.93125 18.2813 4.81219 18.2813 4.6875V3.75C18.2813 3.62531 18.232 3.50625 18.1439 3.41859L17.2064 2.48109C17.1188 2.39297 16.9997 2.34375 16.875 2.34375H15.9375C15.8128 2.34375 15.6937 2.39297 15.6061 2.48109L14.6686 3.41859C14.5805 3.50625 14.5312 3.62531 14.5312 3.75V4.6875C14.5312 4.81219 14.5805 4.93125 14.6686 5.01891L15.6061 5.95641C15.6937 6.04453 15.8128 6.09375 15.9375 6.09375ZM15.4688 3.94406L16.1316 3.28125H16.6809L17.3438 3.94406V4.49344L16.6809 5.15625H16.1316L15.4688 4.49344V3.94406Z" fill="#183787"/>
<path d="M15 7.96875H17.8125C17.9372 7.96875 18.0563 7.91953 18.1439 7.83141L20.0189 5.95641C20.107 5.86875 20.1562 5.74969 20.1562 5.625V2.8125C20.1562 2.68781 20.107 2.56875 20.0189 2.48109L18.1439 0.606094C18.0563 0.517969 17.9372 0.46875 17.8125 0.46875H15C14.8753 0.46875 14.7562 0.517969 14.6686 0.606094L12.7936 2.48109C12.7055 2.56875 12.6562 2.68781 12.6562 2.8125V5.625C12.6562 5.74969 12.7055 5.86875 12.7936 5.95641L14.6686 7.83141C14.7562 7.91953 14.8753 7.96875 15 7.96875ZM13.5938 3.00656L15.1941 1.40625H17.6184L19.2188 3.00656V5.43094L17.6184 7.03125H15.1941L13.5938 5.43094V3.00656Z" fill="#183787"/>
<path d="M26.25 5.15625H25.3125C25.1878 5.15625 25.0687 5.20547 24.9811 5.29359L24.0436 6.23109C23.9555 6.31875 23.9062 6.43781 23.9062 6.5625V7.5C23.9062 7.62469 23.9555 7.74375 24.0436 7.83141L24.9811 8.76891C25.0687 8.85703 25.1878 8.90625 25.3125 8.90625H26.25C26.3747 8.90625 26.4938 8.85703 26.5814 8.76891L27.5189 7.83141C27.607 7.74375 27.6562 7.62469 27.6562 7.5V6.5625C27.6562 6.43781 27.607 6.31875 27.5189 6.23109L26.5814 5.29359C26.4938 5.20547 26.3747 5.15625 26.25 5.15625ZM26.7188 7.30594L26.0559 7.96875H25.5066L24.8438 7.30594V6.75656L25.5066 6.09375H26.0559L26.7188 6.75656V7.30594Z" fill="#183787"/>
<path d="M27.5189 3.41859C27.4313 3.33047 27.3122 3.28125 27.1875 3.28125H24.375C24.2503 3.28125 24.1312 3.33047 24.0436 3.41859L22.1686 5.29359C22.0805 5.38125 22.0312 5.50031 22.0312 5.625V8.4375C22.0312 8.56219 22.0805 8.68125 22.1686 8.76891L24.0436 10.6439C24.1312 10.732 24.2503 10.7812 24.375 10.7812H27.1875C27.3122 10.7812 27.4313 10.732 27.5189 10.6439L29.3939 8.76891C29.482 8.68125 29.5312 8.56219 29.5312 8.4375V5.625C29.5312 5.50031 29.482 5.38125 29.3939 5.29359L27.5189 3.41859ZM28.5938 8.24344L26.9934 9.84375H24.5691L22.9688 8.24344V5.81906L24.5691 4.21875H26.9934L28.5938 5.81906V8.24344Z" fill="#183787"/>
</svg>
