<svg width="30" height="30" viewBox="0 0 30 30" fill="none" xmlns="http://www.w3.org/2000/svg">
<path d="M15.4688 0.46875H9.84375C9.06844 0.46875 8.4375 1.09969 8.4375 1.875V3.75H3.28125C3.02203 3.75 2.8125 3.95953 2.8125 4.21875V29.0625C2.8125 29.3217 3.02203 29.5312 3.28125 29.5312H22.0312C22.2905 29.5312 22.5 29.3217 22.5 29.0625V26.25H24.375V27.1875C24.375 27.4467 24.5845 27.6562 24.8438 27.6562H25.3125C26.3466 27.6562 27.1875 26.8153 27.1875 25.7812C27.1875 24.7472 26.3466 23.9062 25.3125 23.9062H24.8438C24.5845 23.9062 24.375 24.1158 24.375 24.375V25.3125H22.5V21.5625H24.375V22.9688H25.3125V21.2358L26.3288 22.7602C26.4169 22.8928 26.565 22.9688 26.7188 22.9688C26.7642 22.9688 26.8097 22.9622 26.8547 22.9486C27.0525 22.8886 27.1875 22.7062 27.1875 22.5V19.2188H26.25V20.9517L25.2337 19.4273C25.1194 19.2558 24.9052 19.1784 24.7078 19.2389C24.51 19.2989 24.375 19.4813 24.375 19.6875V20.625H22.5V16.875H24.375V18.2812H25.3125V16.9612C25.8567 17.1553 26.25 17.6709 26.25 18.2812H27.1875C27.1875 17.6498 26.9339 17.0784 26.5266 16.6566C26.9222 16.4077 27.1875 15.9698 27.1875 15.4688C27.1875 14.6934 26.5566 14.0625 25.7812 14.0625H24.8438C24.5845 14.0625 24.375 14.272 24.375 14.5312V15.9375H22.5V11.7188H24.375V13.125H25.3125V11.7188H25.7812C26.5566 11.7188 27.1875 11.0878 27.1875 10.3125C27.1875 9.53719 26.5566 8.90625 25.7812 8.90625H24.8438C24.5845 8.90625 24.375 9.11578 24.375 9.375V10.7812H22.5V4.21875C22.5 3.95953 22.2905 3.75 22.0312 3.75H16.875V1.875C16.875 1.09969 16.2441 0.46875 15.4688 0.46875ZM25.3125 24.8438C25.8295 24.8438 26.25 25.2642 26.25 25.7812C26.25 26.2983 25.8295 26.7188 25.3125 26.7188V24.8438ZM25.3125 15H25.7812C26.04 15 26.25 15.21 26.25 15.4688C26.25 15.7275 26.04 15.9375 25.7812 15.9375H25.3125V15ZM25.3125 9.84375H25.7812C26.04 9.84375 26.25 10.0538 26.25 10.3125C26.25 10.5712 26.04 10.7812 25.7812 10.7812H25.3125V9.84375ZM9.375 7.8825V9.375C9.375 9.63422 9.58453 9.84375 9.84375 9.84375H11.25V12.6562H9.84375C9.58453 12.6562 9.375 12.8658 9.375 13.125V24.375C9.375 24.6342 9.58453 24.8438 9.84375 24.8438H15.4688C15.728 24.8438 15.9375 24.6342 15.9375 24.375V13.125C15.9375 12.8658 15.728 12.6562 15.4688 12.6562H14.0625V9.84375H15.4688C15.728 9.84375 15.9375 9.63422 15.9375 9.375V7.8825C16.4817 7.68844 16.875 7.17281 16.875 6.5625H19.6875V26.7188H5.625V6.5625H8.4375C8.4375 7.17281 8.83078 7.68844 9.375 7.8825ZM11.7188 19.6875H13.5938C13.853 19.6875 14.0625 19.478 14.0625 19.2188V13.5938H15V23.9062H10.3125V13.5938H11.25V19.2188C11.25 19.478 11.4595 19.6875 11.7188 19.6875ZM13.125 18.75H12.1875V9.84375H13.125V18.75ZM10.3125 8.90625V7.96875H15V8.90625H10.3125ZM9.375 1.875C9.375 1.61625 9.585 1.40625 9.84375 1.40625H15.4688C15.7275 1.40625 15.9375 1.61625 15.9375 1.875V6.5625C15.9375 6.82125 15.7275 7.03125 15.4688 7.03125H9.84375C9.585 7.03125 9.375 6.82125 9.375 6.5625V1.875ZM21.5625 4.6875V28.5938H3.75V4.6875H8.4375V5.625H5.15625C4.89703 5.625 4.6875 5.83453 4.6875 6.09375V27.1875C4.6875 27.4467 4.89703 27.6562 5.15625 27.6562H20.1562C20.4155 27.6562 20.625 27.4467 20.625 27.1875V6.09375C20.625 5.83453 20.4155 5.625 20.1562 5.625H16.875V4.6875H21.5625Z" fill="#183787"/>
<path d="M17.8125 24.8438H18.75V25.7812H17.8125V24.8438Z" fill="#183787"/>
<path d="M6.5625 24.8438H7.5V25.7812H6.5625V24.8438Z" fill="#183787"/>
</svg>
