<svg width="30" height="30" viewBox="0 0 30 30" fill="none" xmlns="http://www.w3.org/2000/svg">
<path d="M29.0625 5.15625H19.6875C19.6875 2.57156 17.5847 0.46875 15 0.46875C12.4153 0.46875 10.3125 2.57156 10.3125 5.15625H0.9375C0.67875 5.15625 0.46875 5.36625 0.46875 5.625V11.25C0.46875 11.5087 0.67875 11.7188 0.9375 11.7188H1.40625V26.7188H0.9375C0.67875 26.7188 0.46875 26.9287 0.46875 27.1875V29.0625C0.46875 29.3213 0.67875 29.5312 0.9375 29.5312H29.0625C29.3213 29.5312 29.5312 29.3213 29.5312 29.0625V27.1875C29.5312 26.9287 29.3213 26.7188 29.0625 26.7188H28.5938V11.7188H29.0625C29.3213 11.7188 29.5312 11.5087 29.5312 11.25V5.625C29.5312 5.36625 29.3213 5.15625 29.0625 5.15625ZM15 1.40625C17.0677 1.40625 18.75 3.08859 18.75 5.15625C18.75 7.22391 17.0677 8.90625 15 8.90625C12.9323 8.90625 11.25 7.22391 11.25 5.15625C11.25 3.08859 12.9323 1.40625 15 1.40625ZM2.34375 11.7188H3.28125V26.7188H2.34375V11.7188ZM24.8438 26.7188V15C24.8438 14.2247 24.2128 13.5938 23.4375 13.5938H16.875C16.0997 13.5938 15.4688 14.2247 15.4688 15V26.7188H14.5312V15C14.5312 14.2247 13.9003 13.5938 13.125 13.5938H6.5625C5.78719 13.5938 5.15625 14.2247 5.15625 15V26.7188H4.21875V11.7188H25.7812V26.7188H24.8438ZM23.9062 24.8438H16.4062V15C16.4062 14.7417 16.6167 14.5312 16.875 14.5312H23.4375C23.6958 14.5312 23.9062 14.7417 23.9062 15V24.8438ZM16.4062 25.7812H23.9062V26.7188H16.4062V25.7812ZM13.5938 24.8438H6.09375V15C6.09375 14.7417 6.30422 14.5312 6.5625 14.5312H13.125C13.3833 14.5312 13.5938 14.7417 13.5938 15V24.8438ZM6.09375 25.7812H13.5938V26.7188H6.09375V25.7812ZM28.5938 28.5938H1.40625V27.6562H28.5938V28.5938ZM27.6562 26.7188H26.7188V11.7188H27.6562V26.7188ZM28.5938 10.7812H1.40625V6.09375H10.4072C10.8427 8.23078 12.7364 9.84375 15 9.84375C17.2636 9.84375 19.1573 8.23078 19.5928 6.09375H28.5938V10.7812Z" fill="#183787"/>
<path d="M12.1875 15.4688H7.5C7.24125 15.4688 7.03125 15.6788 7.03125 15.9375V18.75C7.03125 19.0087 7.24125 19.2188 7.5 19.2188H12.1875C12.4462 19.2188 12.6562 19.0087 12.6562 18.75V15.9375C12.6562 15.6788 12.4462 15.4688 12.1875 15.4688ZM11.7188 18.2812H7.96875V16.4062H11.7188V18.2812Z" fill="#183787"/>
<path d="M7.03125 21.0938H7.96875V22.5C7.96875 22.7587 8.17875 22.9688 8.4375 22.9688H11.25C11.5087 22.9688 11.7188 22.7587 11.7188 22.5V21.0938H12.6562V20.1562H7.03125V21.0938ZM10.7812 22.0312H8.90625V21.0938H10.7812V22.0312Z" fill="#183787"/>
<path d="M22.5 15.4688H17.8125C17.5538 15.4688 17.3438 15.6788 17.3438 15.9375V18.75C17.3438 19.0087 17.5538 19.2188 17.8125 19.2188H22.5C22.7588 19.2188 22.9688 19.0087 22.9688 18.75V15.9375C22.9688 15.6788 22.7588 15.4688 22.5 15.4688ZM22.0313 18.2812H18.2813V16.4062H22.0313V18.2812Z" fill="#183787"/>
<path d="M17.3438 21.0938H18.2813V22.5C18.2813 22.7587 18.4913 22.9688 18.75 22.9688H21.5625C21.8213 22.9688 22.0313 22.7587 22.0313 22.5V21.0938H22.9688V20.1562H17.3438V21.0938ZM21.0938 22.0312H19.2188V21.0938H21.0938V22.0312Z" fill="#183787"/>
<path d="M14.7253 7.96875H15.2747C15.8273 7.96875 16.3472 7.75359 16.7377 7.36266C17.1286 6.97219 17.3438 6.45235 17.3438 5.89969C17.3438 5.31422 17.1422 4.74 16.7766 4.28297L15.3661 2.51954C15.1884 2.29688 14.8116 2.29688 14.6339 2.51954L13.2234 4.28297C12.8578 4.74 12.6562 5.31422 12.6562 5.89969C12.6562 6.45235 12.8714 6.97219 13.2623 7.36266C13.6528 7.75359 14.1727 7.96875 14.7253 7.96875ZM13.9552 4.86844L15 3.56297L16.0448 4.86891C16.2778 5.16 16.4062 5.52657 16.4062 5.89969C16.4062 6.19735 16.2853 6.48938 16.0748 6.69985C15.8644 6.91031 15.5723 7.03125 15.2747 7.03125H14.7253C14.4277 7.03125 14.1356 6.91031 13.9252 6.69985C13.7147 6.48938 13.5938 6.19735 13.5938 5.89969C13.5938 5.52657 13.7222 5.16 13.9552 4.86844Z" fill="#183787"/>
</svg>
