<svg width="30" height="30" viewBox="0 0 30 30" fill="none" xmlns="http://www.w3.org/2000/svg">
<path d="M4.21875 11.25V13.125C4.21875 13.3842 4.42828 13.5938 4.6875 13.5938H7.5C7.75922 13.5938 7.96875 13.3842 7.96875 13.125V11.25C7.96875 10.9908 7.75922 10.7812 7.5 10.7812H4.6875C4.42828 10.7812 4.21875 10.9908 4.21875 11.25ZM5.15625 11.7188H7.03125V12.6562H5.15625V11.7188Z" fill="#183787"/>
<path d="M7.5 14.5312H4.6875C4.42828 14.5312 4.21875 14.7408 4.21875 15V16.875C4.21875 17.1342 4.42828 17.3438 4.6875 17.3438H7.5C7.75922 17.3438 7.96875 17.1342 7.96875 16.875V15C7.96875 14.7408 7.75922 14.5312 7.5 14.5312ZM7.03125 16.4062H5.15625V15.4688H7.03125V16.4062Z" fill="#183787"/>
<path d="M7.5 18.2812H4.6875C4.42828 18.2812 4.21875 18.4908 4.21875 18.75V20.625C4.21875 20.8842 4.42828 21.0938 4.6875 21.0938H7.5C7.75922 21.0938 7.96875 20.8842 7.96875 20.625V18.75C7.96875 18.4908 7.75922 18.2812 7.5 18.2812ZM7.03125 20.1562H5.15625V19.2188H7.03125V20.1562Z" fill="#183787"/>
<path d="M7.5 22.0312H4.6875C4.42828 22.0312 4.21875 22.2408 4.21875 22.5V24.375C4.21875 24.6342 4.42828 24.8438 4.6875 24.8438H7.5C7.75922 24.8438 7.96875 24.6342 7.96875 24.375V22.5C7.96875 22.2408 7.75922 22.0312 7.5 22.0312ZM7.03125 23.9062H5.15625V22.9688H7.03125V23.9062Z" fill="#183787"/>
<path d="M8.90625 10.7812H15.4688V11.7188H8.90625V10.7812Z" fill="#183787"/>
<path d="M8.90625 12.6562H15.4688V13.5938H8.90625V12.6562Z" fill="#183787"/>
<path d="M8.90625 14.5312H15.4688V15.4688H8.90625V14.5312Z" fill="#183787"/>
<path d="M8.90625 16.4062H15.4688V17.3438H8.90625V16.4062Z" fill="#183787"/>
<path d="M8.90625 18.2812H15.4688V19.2188H8.90625V18.2812Z" fill="#183787"/>
<path d="M8.90625 20.1562H15.4688V21.0938H8.90625V20.1562Z" fill="#183787"/>
<path d="M8.90625 22.0312H15.4688V22.9688H8.90625V22.0312Z" fill="#183787"/>
<path d="M8.90625 23.9062H15.4688V24.8438H8.90625V23.9062Z" fill="#183787"/>
<path d="M29.0625 8.4375H27.4298C27.2362 7.62937 26.9208 6.86672 26.49 6.16219L27.6427 5.00953C27.7308 4.92141 27.78 4.80281 27.78 4.67812C27.78 4.55344 27.7308 4.43437 27.6427 4.34672L25.6537 2.35781C25.478 2.18203 25.1667 2.18203 24.9909 2.35781L23.8383 3.51047C23.1333 3.07922 22.3706 2.76375 21.5625 2.57016V0.9375C21.5625 0.678281 21.353 0.46875 21.0938 0.46875H18.2812C18.022 0.46875 17.8125 0.678281 17.8125 0.9375V2.57016C17.0044 2.76375 16.2417 3.07922 15.5372 3.51L14.3845 2.35734C14.2964 2.26922 14.1778 2.22 14.0531 2.22C13.9284 2.22 13.8094 2.26922 13.7217 2.35734L11.7328 4.34625C11.6447 4.43438 11.5955 4.55297 11.5955 4.67766C11.5955 4.80234 11.6447 4.92141 11.7328 5.00906L11.8795 5.15625H6.5625H0.9375C0.678281 5.15625 0.46875 5.36578 0.46875 5.625V29.0625C0.46875 29.3217 0.678281 29.5312 0.9375 29.5312H18.75C19.0092 29.5312 19.2188 29.3217 19.2188 29.0625V28.5938H25.3125C25.3627 28.5938 25.4128 28.5853 25.4606 28.5694L28.2731 27.6319C28.4648 27.5681 28.5938 27.3895 28.5938 27.1875C28.5938 26.9855 28.4648 26.8069 28.2731 26.7431L25.4606 25.8056C25.4128 25.7897 25.3627 25.7812 25.3125 25.7812H19.2188V24.8438H24.375C24.4252 24.8438 24.4753 24.8353 24.5231 24.8194L27.3356 23.8819C27.5273 23.8181 27.6562 23.6395 27.6562 23.4375C27.6562 23.2355 27.5273 23.0569 27.3356 22.9931L24.5231 22.0556C24.4753 22.0397 24.4252 22.0312 24.375 22.0312H19.2188V20.1562H21.0938C21.353 20.1562 21.5625 19.9467 21.5625 19.6875V18.0548C22.3706 17.8612 23.1333 17.5458 23.8378 17.115L24.9905 18.2677C25.0786 18.3558 25.1972 18.405 25.3219 18.405C25.4466 18.405 25.5656 18.3558 25.6533 18.2677L27.6422 16.2788C27.7303 16.1906 27.7795 16.072 27.7795 15.9473C27.7795 15.8227 27.7303 15.7036 27.6422 15.6159L26.4895 14.4633C26.9203 13.7583 27.2358 12.9956 27.4294 12.188H29.0625C29.3217 12.188 29.5312 11.9784 29.5312 11.7192V8.90672C29.5312 8.64703 29.3217 8.4375 29.0625 8.4375ZM6.5625 9.84375H13.125C13.3842 9.84375 13.5938 9.63422 13.5938 9.375V8.90625H16.4062V25.7812H3.28125V8.90625H6.09375V9.375C6.09375 9.63422 6.30328 9.84375 6.5625 9.84375ZM12.6562 6.09375V8.90625H7.03125V6.09375H12.6562ZM18.2812 28.5938H1.40625V6.09375H6.09375V7.96875H2.8125C2.55328 7.96875 2.34375 8.17828 2.34375 8.4375V26.25C2.34375 26.5092 2.55328 26.7188 2.8125 26.7188H16.875C17.1342 26.7188 17.3438 26.5092 17.3438 26.25V8.4375C17.3438 8.17828 17.1342 7.96875 16.875 7.96875H13.5938V6.09375H18.2812V28.5938ZM19.2188 11.4272L19.3491 11.5631C19.5258 11.7473 19.8488 11.7473 20.0255 11.5631L20.963 10.5867C21.0469 10.4995 21.0938 10.3828 21.0938 10.2623V8.29406C21.6727 8.75062 22.0312 9.47531 22.0312 10.2623C22.0312 11.3039 21.4008 12.2358 20.4628 12.5813C20.2786 12.6492 20.1562 12.8245 20.1562 13.0209V15.4448C20.0016 15.4589 19.8459 15.4688 19.6875 15.4688C19.5309 15.4688 19.3744 15.4603 19.2188 15.4462V11.4272ZM21.0938 13.3298C22.2277 12.7725 22.9688 11.5795 22.9688 10.2623C22.9688 8.82703 22.0922 7.54031 20.7872 7.06031C20.6428 7.00734 20.4825 7.02844 20.3569 7.11563C20.2313 7.20328 20.1562 7.34672 20.1562 7.5V10.0734L19.6875 10.5614L19.2188 10.0734V5.625C19.2188 5.44078 19.11 5.28516 18.9558 5.20875C19.1967 5.17453 19.4409 5.15625 19.6875 5.15625C22.5305 5.15625 24.8438 7.46953 24.8438 10.3125C24.8438 12.6675 23.2547 14.6545 21.0938 15.2691V13.3298ZM25.7812 27.4748V26.9006L26.6428 27.1875L25.7812 27.4748ZM24.8438 26.7188V27.6562H19.2188V26.7188H24.8438ZM24.8438 23.7248V23.1506L25.7053 23.4375L24.8438 23.7248ZM23.9062 22.9688V23.9062H19.2188V22.9688H23.9062ZM28.5938 11.25H27.0511C26.8261 11.25 26.6325 11.4103 26.5908 11.6311C26.4098 12.5831 26.0442 13.4686 25.5037 14.2631C25.3767 14.4487 25.4002 14.6991 25.5595 14.8584L26.6484 15.9469L25.3223 17.273L24.2339 16.1841C24.0745 16.0247 23.8247 16.0008 23.6386 16.1283C22.8441 16.6688 21.9586 17.0348 21.0066 17.2153C20.7853 17.2575 20.625 17.4511 20.625 17.6761V19.2188H19.2188V16.387C19.3744 16.3988 19.5309 16.4062 19.6875 16.4062C23.0475 16.4062 25.7812 13.6725 25.7812 10.3125C25.7812 6.9525 23.0475 4.21875 19.6875 4.21875C18.533 4.21875 17.4164 4.54453 16.4452 5.15625H13.2056L12.7266 4.67766L14.0527 3.35156L15.1411 4.44047C15.3009 4.59984 15.5503 4.62422 15.7364 4.49625C16.5309 3.95578 17.4164 3.58969 18.3684 3.40922C18.5897 3.3675 18.75 3.17391 18.75 2.94891V1.40625H20.625V2.94891C20.625 3.17391 20.7853 3.3675 21.0061 3.40922C21.9581 3.59016 22.8436 3.95578 23.6381 4.49625C23.8238 4.62375 24.0745 4.59984 24.2334 4.44047L25.3219 3.35156L26.648 4.67766L25.5591 5.76609C25.3997 5.92547 25.3763 6.17531 25.5033 6.36141C26.0438 7.15594 26.4098 8.04141 26.5903 8.99344C26.6325 9.21469 26.8261 9.375 27.0511 9.375H28.5938V11.25Z" fill="#183787"/>
</svg>
