<svg width="33" height="33" viewBox="0 0 33 33" fill="none" xmlns="http://www.w3.org/2000/svg">
<g clip-path="url(#clip0)">
<path d="M13.6649 19.3352C10.5151 16.1854 9.80387 13.0356 9.64342 11.7736C9.59859 11.4247 9.71867 11.0748 9.9683 10.8269L12.5173 8.27903C12.8922 7.90431 12.9588 7.32031 12.6777 6.87084L8.61928 0.568981C8.30835 0.0712778 7.66993 -0.108348 7.14509 0.154205L0.629869 3.22264C0.205454 3.43162 -0.0441806 3.88255 0.00400705 4.35317C0.345386 7.59628 1.75927 15.5686 9.59392 23.4038C17.4286 31.2391 25.3998 32.6524 28.6446 32.9938C29.1152 33.042 29.5661 32.7923 29.7751 32.3679L32.8436 25.8527C33.1051 25.329 32.9267 24.6923 32.4311 24.3808L26.1292 20.3235C25.68 20.0421 25.096 20.1082 24.721 20.4828L22.1732 23.0317C21.9253 23.2814 21.5754 23.4015 21.2264 23.3566C19.9645 23.1962 16.8147 22.485 13.6649 19.3352Z" fill="black"/>
<path d="M26.1724 17.6379C25.544 17.6379 25.0345 17.1284 25.0345 16.5C25.0292 11.7887 21.2113 7.97083 16.5 7.9655C15.8716 7.9655 15.3621 7.45603 15.3621 6.82757C15.3621 6.19911 15.8716 5.68964 16.5 5.68964C22.4677 5.69622 27.3038 10.5323 27.3104 16.5C27.3104 17.1284 26.8009 17.6379 26.1724 17.6379Z" fill="black"/>
<path d="M31.8621 17.6379C31.2336 17.6379 30.7242 17.1285 30.7242 16.5C30.7154 8.64787 24.3522 2.28464 16.5 2.27586C15.8716 2.27586 15.3621 1.76639 15.3621 1.13793C15.3621 0.509469 15.8716 0 16.5 0C25.6086 0.0100342 32.99 7.39146 33 16.5C33 16.8018 32.8801 17.0912 32.6667 17.3046C32.4533 17.518 32.1639 17.6379 31.8621 17.6379Z" fill="black"/>
</g>
<defs>
<clipPath id="clip0">
<rect width="33" height="33" fill="white"/>
</clipPath>
</defs>
</svg>
