<svg width="23" height="23" viewBox="0 0 23 23" fill="none" xmlns="http://www.w3.org/2000/svg">
<g clip-path="url(#clip0)">
<path d="M20.5798 6.05182C20.1035 6.28228 19.9041 6.8555 20.1346 7.33162C20.7642 8.63225 21.0833 10.0342 21.0833 11.5C21.0833 16.7842 16.7842 21.0833 11.5 21.0833C6.21583 21.0833 1.91667 16.7842 1.91667 11.5C1.91667 6.21583 6.21583 1.91667 11.5 1.91667C13.6897 1.91667 15.7468 2.63167 17.4493 3.98424C17.8623 4.3139 18.4662 4.24488 18.7958 3.83053C19.1255 3.4164 19.0565 2.81323 18.6419 2.48404C16.6262 0.88206 14.0898 0 11.5 0C5.15923 0 0 5.15923 0 11.5C0 17.8408 5.15923 23 11.5 23C17.8408 23 23 17.8408 23 11.5C23 9.7429 22.6163 8.05903 21.8596 6.49706C21.6296 6.01976 21.0546 5.82089 20.5798 6.05182Z" fill="white"/>
<path d="M11.5 3.83333C10.971 3.83333 10.5417 4.26266 10.5417 4.79166V11.5C10.5417 12.029 10.971 12.4583 11.5 12.4583H16.2917C16.8207 12.4583 17.25 12.029 17.25 11.5C17.25 10.971 16.8207 10.5417 16.2917 10.5417H12.4584V4.79166C12.4584 4.26266 12.029 3.83333 11.5 3.83333Z" fill="white"/>
</g>
<defs>
<clipPath id="clip0">
<rect width="23" height="23" fill="white"/>
</clipPath>
</defs>
</svg>
