<svg width="25" height="35" viewBox="0 0 25 35" fill="none" xmlns="http://www.w3.org/2000/svg">
<path d="M12.5163 16.4292C15.9911 16.4292 18.8181 13.6022 18.8181 10.1273C18.8181 8.71059 18.3588 7.37231 17.4899 6.25719C17.2579 5.95938 16.8283 5.90613 16.5305 6.13809C16.2326 6.3702 16.1793 6.79981 16.4114 7.09762C17.0914 7.97031 17.4508 9.01796 17.4508 10.1273C17.4508 12.8483 15.2372 15.0619 12.5163 15.0619C9.79537 15.0619 7.58181 12.8483 7.58181 10.1273C7.58181 7.40643 9.79537 5.19286 12.5163 5.19286C12.8939 5.19286 13.2 4.88671 13.2 4.5092C13.2 4.13168 12.8939 3.82553 12.5163 3.82553C9.04143 3.82553 6.21448 6.65255 6.21448 10.1273C6.21441 13.6022 9.04143 16.4292 12.5163 16.4292Z" fill="white"/>
<path d="M15.0219 5.78108C15.3474 5.78108 15.6264 5.5541 15.6919 5.23141C15.7653 4.86401 15.5289 4.50324 15.1552 4.42742C14.742 4.34388 14.3383 4.66041 14.3383 5.0981C14.3383 5.47404 14.6424 5.78108 15.0219 5.78108Z" fill="white"/>
<path d="M23.1005 22.7229C22.9959 21.7386 22.3732 20.9281 21.5198 20.5501C20.8146 20.2381 20.2918 20.3312 19.378 20.3206H18.3198L21.2555 15.4236C23.663 11.4076 23.0322 6.29048 19.7212 2.97956C15.7485 -0.993146 9.28422 -0.993146 5.31144 2.97956C2.00059 6.29048 1.36964 11.4076 3.77723 15.4236L6.71295 20.3206H4.44045C3.04352 20.3206 1.89353 21.3695 1.76541 22.7605C0.833917 32.8723 0.894353 32.1364 0.897156 32.347C0.91541 33.7069 1.9459 34.8406 3.30242 34.984C3.56844 35.0121 2.45653 34.9936 21.4184 34.9988C22.9001 34.9988 24.1045 33.7959 24.1047 32.3119C24.1046 32.0432 24.1354 32.5086 23.1005 22.7229ZM20.4292 21.6878C21.1055 21.6878 21.6693 22.195 21.7409 22.8674L21.8813 24.1897C21.626 24.3361 21.3354 24.4144 21.0376 24.4144C19.6222 24.4144 18.8446 22.787 19.6827 21.6878H20.4292ZM12.5163 1.36666C19.3791 1.36666 23.5953 8.86126 20.0828 14.7205L14.1195 24.6677C13.3938 25.878 11.6394 25.879 10.9131 24.6677L4.94985 14.7205C1.43465 8.85695 5.65751 1.36666 12.5163 1.36666ZM4.44032 21.6878H7.53246L9.74029 25.3707C10.9967 27.4665 14.0346 27.4683 15.2921 25.3707L17.4999 21.6878H18.1457C17.4396 23.6808 18.9226 25.7817 21.0375 25.7817C21.379 25.7817 21.7149 25.724 22.0329 25.6148L22.4553 29.589L20.5756 28.3287C19.6503 27.7082 18.4734 27.6642 17.5043 28.2134L14.2242 30.0725C13.8397 29.799 10.1741 27.1915 9.64847 26.8175C8.51168 26.0088 7.0098 25.9593 5.82221 26.6913L2.59292 28.6819L3.12686 22.8857C3.18976 22.2029 3.75446 21.6878 4.44032 21.6878ZM21.6958 33.6029C21.4379 33.6572 22.5496 33.6213 3.58314 33.6315C2.80431 33.6315 2.19844 32.9641 2.26968 32.1915L2.43608 30.3849L6.53971 27.8554C7.25872 27.4124 8.16786 27.4423 8.8559 27.9318C9.46956 28.3683 14.8684 32.2089 15.5776 32.7134C15.8847 32.9319 16.3117 32.861 16.531 32.5526C16.7499 32.2449 16.6778 31.8181 16.3702 31.5993L15.4538 30.9473L18.1785 29.4031C18.6946 29.1106 19.3214 29.134 19.8142 29.4644L22.6436 31.3615C22.7279 32.1749 22.7373 32.1923 22.7376 32.3135C22.7393 32.9482 22.2843 33.4787 21.6958 33.6029Z" fill="white"/>
</svg>
